<?xml version="1.0" encoding="UTF-8" standalone="no"?>
<svg width="215.9mm" height="33.02mm" viewBox="0 0 3060 468"
 xmlns="http://www.w3.org/2000/svg" xmlns:xlink="http://www.w3.org/1999/xlink" version="1.2" baseProfile="full">
<title>0003</title>
<desc>Generated by MuseScore Studio 4.6.3</desc>
<polyline class="StaffLines" fill="none" stroke="#000000" stroke-width="2.73" stroke-linejoin="bevel" points="124,173.6 2952,173.6" />
<polyline class="StaffLines" fill="none" stroke="#000000" stroke-width="2.73" stroke-linejoin="bevel" points="124,198.4 2952,198.4" />
<polyline class="StaffLines" fill="none" stroke="#000000" stroke-width="2.73" stroke-linejoin="bevel" points="124,223.2 2952,223.2" />
<polyline class="StaffLines" fill="none" stroke="#000000" stroke-width="2.73" stroke-linejoin="bevel" points="124,248 2952,248" />
<polyline class="StaffLines" fill="none" stroke="#000000" stroke-width="2.73" stroke-linejoin="bevel" points="124,272.8 2952,272.8" />
<polyline class="BarLine" fill="none" stroke="#000000" stroke-width="4.46" stroke-linejoin="bevel" points="1678.73,172.236 1678.73,274.164" />
<polyline class="BarLine" fill="none" stroke="#000000" stroke-width="4.46" stroke-linejoin="bevel" points="2356.36,172.236 2356.36,274.164" />
<polyline class="BarLine" fill="none" stroke="#000000" stroke-width="4.46" stroke-linejoin="bevel" points="2926.95,172.236 2926.95,274.164" />
<polyline class="BarLine" fill="none" stroke="#000000" stroke-width="13.64" stroke-linejoin="bevel" points="2945.18,172.236 2945.18,274.164" />
<polyline class="BarLine" fill="none" stroke="#000000" stroke-width="4.46" stroke-linejoin="bevel" points="1001.11,172.236 1001.11,274.164" />
<path class="TieSegment" stroke="#000000" stroke-width="1.24" stroke-linecap="round" stroke-linejoin="round" fill-rule="evenodd" d="M2677.69,130.704 C2708.8,102.211 2802.15,102.211 2833.27,130.704 C2802.15,110.147 2708.8,110.147 2677.69,130.704"/>
<polyline class="LedgerLine" fill="none" stroke="#000000" stroke-width="3.97" stroke-linejoin="bevel" points="2648.97,148.8 2697.56,148.8" />
<polyline class="LedgerLine" fill="none" stroke="#000000" stroke-width="3.97" stroke-linejoin="bevel" points="2381.4,148.8 2430,148.8" />
<polyline class="LedgerLine" fill="none" stroke="#000000" stroke-width="3.97" stroke-linejoin="bevel" points="2809.51,148.8 2858.1,148.8" />
<polyline class="LedgerLine" fill="none" stroke="#000000" stroke-width="3.97" stroke-linejoin="bevel" points="2541.94,148.8 2590.54,148.8" />
<polyline class="LedgerLine" fill="none" stroke="#000000" stroke-width="3.97" stroke-linejoin="bevel" points="2541.94,124 2590.54,124" />
<polyline class="Stem" fill="none" stroke="#000000" stroke-width="2.48" stroke-linejoin="bevel" points="1713.2,202.566 1713.2,272.764" />
<polyline class="Stem" fill="none" stroke="#000000" stroke-width="2.48" stroke-linejoin="bevel" points="1820.23,190.166 1820.23,269.7" />
<polyline class="Stem" fill="none" stroke="#000000" stroke-width="2.48" stroke-linejoin="bevel" points="1927.26,177.766 1927.26,266.636" />
<polyline class="Stem" fill="none" stroke="#000000" stroke-width="2.48" stroke-linejoin="bevel" points="357.957,202.566 357.957,272.764" />
<polyline class="Stem" fill="none" stroke="#000000" stroke-width="2.48" stroke-linejoin="bevel" points="2034.28,165.366 2034.28,248" />
<polyline class="Stem" fill="none" stroke="#000000" stroke-width="2.48" stroke-linejoin="bevel" points="2141.31,177.766 2141.31,248" />
<polyline class="Stem" fill="none" stroke="#000000" stroke-width="2.48" stroke-linejoin="bevel" points="2248.34,165.366 2248.34,248" />
<polyline class="Stem" fill="none" stroke="#000000" stroke-width="2.48" stroke-linejoin="bevel" points="2390.83,152.966 2390.83,235.6" />
<polyline class="Stem" fill="none" stroke="#000000" stroke-width="2.48" stroke-linejoin="bevel" points="572.01,177.766 572.01,266.636" />
<polyline class="Stem" fill="none" stroke="#000000" stroke-width="2.48" stroke-linejoin="bevel" points="2551.37,128.166 2551.37,223.101" />
<polyline class="Stem" fill="none" stroke="#000000" stroke-width="2.48" stroke-linejoin="bevel" points="679.037,165.366 679.037,241.871" />
<polyline class="Stem" fill="none" stroke="#000000" stroke-width="2.48" stroke-linejoin="bevel" points="2658.39,152.966 2658.39,235.6" />
<polyline class="Stem" fill="none" stroke="#000000" stroke-width="2.48" stroke-linejoin="bevel" points="2818.93,152.966 2818.93,235.501" />
<polyline class="Stem" fill="none" stroke="#000000" stroke-width="2.48" stroke-linejoin="bevel" points="786.063,177.766 786.063,248" />
<polyline class="Stem" fill="none" stroke="#000000" stroke-width="2.48" stroke-linejoin="bevel" points="893.09,190.166 893.09,254.129" />
<polyline class="Stem" fill="none" stroke="#000000" stroke-width="2.48" stroke-linejoin="bevel" points="1035.58,177.766 1035.58,266.636" />
<polyline class="Stem" fill="none" stroke="#000000" stroke-width="2.48" stroke-linejoin="bevel" points="1142.61,190.166 1142.61,269.7" />
<polyline class="Stem" fill="none" stroke="#000000" stroke-width="2.48" stroke-linejoin="bevel" points="1249.63,202.566 1249.63,272.764" />
<polyline class="Stem" fill="none" stroke="#000000" stroke-width="2.48" stroke-linejoin="bevel" points="1356.66,190.166 1356.66,266.671" />
<polyline class="Stem" fill="none" stroke="#000000" stroke-width="2.48" stroke-linejoin="bevel" points="1463.69,202.566 1463.69,272.8" />
<polyline class="Stem" fill="none" stroke="#000000" stroke-width="2.48" stroke-linejoin="bevel" points="1570.71,214.966 1570.71,278.929" />
<polyline class="Stem" fill="none" stroke="#000000" stroke-width="2.48" stroke-linejoin="bevel" points="464.984,190.166 464.984,269.7" />
<path class="Hook" transform="matrix(0.992,0,0,0.992,2550.13,223.2)" d="M0,-0.09375 C0,0.59375 0.59375,1.20313 1.29688,1.20313 C1.79688,1.20313 2.40625,0.796875 2.5,0.40625 C2.5,0.296875 3.40625,-3.20313 3.5,-3.5 C3.59375,-3.90625 4.5,-7.70313 8.09375,-13.5938 C12,-20.0938 18,-24.7969 23,-31.7969 C27.9063,-38.7969 30.9063,-45.4063 30.9063,-54.2031 C30.9063,-63.2969 28.7969,-70.9063 23.5,-80.6094 C23.2031,-81.3125 22.5938,-81.7031 22,-81.7031 C21.7969,-81.7031 21.5938,-81.7031 21.5,-81.6094 C21,-81.4063 20.7969,-81 20.7969,-80.4063 C20.7969,-80.1094 20.9063,-79.6094 21.0938,-79.2031 C25.0938,-69.9063 26.7031,-64.6094 26.7031,-57.4063 C26.7031,-49.1094 23.7969,-44.7969 22,-41.7031 C15.5,-30.6094 5,-25.2031 0.796875,-23.7969 C0.09375,-23.5 0,-23 0,-22.7031 L0,-0.09375 "/>
<path class="Hook" transform="matrix(0.992,0,0,0.992,2817.69,235.6)" d="M0,-0.09375 C0,0.59375 0.59375,1.20313 1.29688,1.20313 C1.79688,1.20313 2.40625,0.796875 2.5,0.40625 C2.5,0.296875 3.40625,-3.20313 3.5,-3.5 C3.59375,-3.90625 4.5,-7.70313 8.09375,-13.5938 C12,-20.0938 18,-24.7969 23,-31.7969 C27.9063,-38.7969 30.9063,-45.4063 30.9063,-54.2031 C30.9063,-63.2969 28.7969,-70.9063 23.5,-80.6094 C23.2031,-81.3125 22.5938,-81.7031 22,-81.7031 C21.7969,-81.7031 21.5938,-81.7031 21.5,-81.6094 C21,-81.4063 20.7969,-81 20.7969,-80.4063 C20.7969,-80.1094 20.9063,-79.6094 21.0938,-79.2031 C25.0938,-69.9063 26.7031,-64.6094 26.7031,-57.4063 C26.7031,-49.1094 23.7969,-44.7969 22,-41.7031 C15.5,-30.6094 5,-25.2031 0.796875,-23.7969 C0.09375,-23.5 0,-23 0,-22.7031 L0,-0.09375 "/>
<path class="Note" transform="matrix(0.992,0,0,0.992,1711.96,198.4)" d="M0,4.20313 C0,8.5 3.09375,13.2969 11.2031,13.2969 C21.5938,13.2969 32.5,4.79688 32.5,-4 C32.5,-9.90625 27.5,-13.2031 21.2969,-13.2031 C11.5938,-13.2031 0,-5 0,4.20313"/>
<path class="Note" transform="matrix(0.992,0,0,0.992,1248.39,198.4)" d="M0,4.20313 C0,8.5 3.09375,13.2969 11.2031,13.2969 C21.5938,13.2969 32.5,4.79688 32.5,-4 C32.5,-9.90625 27.5,-13.2031 21.2969,-13.2031 C11.5938,-13.2031 0,-5 0,4.20313"/>
<path class="Note" transform="matrix(0.992,0,0,0.992,2550.13,124)" d="M0,4.20313 C0,8.5 3.09375,13.2969 11.2031,13.2969 C21.5938,13.2969 32.5,4.79688 32.5,-4 C32.5,-9.90625 27.5,-13.2031 21.2969,-13.2031 C11.5938,-13.2031 0,-5 0,4.20313"/>
<path class="Note" transform="matrix(0.992,0,0,0.992,356.717,198.4)" d="M0,4.20313 C0,8.5 3.09375,13.2969 11.2031,13.2969 C21.5938,13.2969 32.5,4.79688 32.5,-4 C32.5,-9.90625 27.5,-13.2031 21.2969,-13.2031 C11.5938,-13.2031 0,-5 0,4.20313"/>
<path class="Note" transform="matrix(0.992,0,0,0.992,1141.37,186)" d="M0,4.20313 C0,8.5 3.09375,13.2969 11.2031,13.2969 C21.5938,13.2969 32.5,4.79688 32.5,-4 C32.5,-9.90625 27.5,-13.2031 21.2969,-13.2031 C11.5938,-13.2031 0,-5 0,4.20313"/>
<path class="Note" transform="matrix(0.992,0,0,0.992,1926.02,173.6)" d="M0,4.20313 C0,8.5 3.09375,13.2969 11.2031,13.2969 C21.5938,13.2969 32.5,4.79688 32.5,-4 C32.5,-9.90625 27.5,-13.2031 21.2969,-13.2031 C11.5938,-13.2031 0,-5 0,4.20313"/>
<path class="Note" transform="matrix(0.992,0,0,0.992,463.744,186)" d="M0,4.20313 C0,8.5 3.09375,13.2969 11.2031,13.2969 C21.5938,13.2969 32.5,4.79688 32.5,-4 C32.5,-9.90625 27.5,-13.2031 21.2969,-13.2031 C11.5938,-13.2031 0,-5 0,4.20313"/>
<path class="Note" transform="matrix(0.992,0,0,0.992,570.77,173.6)" d="M0,4.20313 C0,8.5 3.09375,13.2969 11.2031,13.2969 C21.5938,13.2969 32.5,4.79688 32.5,-4 C32.5,-9.90625 27.5,-13.2031 21.2969,-13.2031 C11.5938,-13.2031 0,-5 0,4.20313"/>
<path class="Note" transform="matrix(0.992,0,0,0.992,677.797,161.2)" d="M0,4.20313 C0,8.5 3.09375,13.2969 11.2031,13.2969 C21.5938,13.2969 32.5,4.79688 32.5,-4 C32.5,-9.90625 27.5,-13.2031 21.2969,-13.2031 C11.5938,-13.2031 0,-5 0,4.20313"/>
<path class="Note" transform="matrix(0.992,0,0,0.992,2389.59,148.8)" d="M0,4.20313 C0,8.5 3.09375,13.2969 11.2031,13.2969 C21.5938,13.2969 32.5,4.79688 32.5,-4 C32.5,-9.90625 27.5,-13.2031 21.2969,-13.2031 C11.5938,-13.2031 0,-5 0,4.20313"/>
<path class="Note" transform="matrix(0.992,0,0,0.992,1569.47,210.8)" d="M0,4.20313 C0,8.5 3.09375,13.2969 11.2031,13.2969 C21.5938,13.2969 32.5,4.79688 32.5,-4 C32.5,-9.90625 27.5,-13.2031 21.2969,-13.2031 C11.5938,-13.2031 0,-5 0,4.20313"/>
<path class="Note" transform="matrix(0.992,0,0,0.992,2140.07,173.6)" d="M0,4.20313 C0,8.5 3.09375,13.2969 11.2031,13.2969 C21.5938,13.2969 32.5,4.79688 32.5,-4 C32.5,-9.90625 27.5,-13.2031 21.2969,-13.2031 C11.5938,-13.2031 0,-5 0,4.20313"/>
<path class="Note" transform="matrix(0.992,0,0,0.992,1818.99,186)" d="M0,4.20313 C0,8.5 3.09375,13.2969 11.2031,13.2969 C21.5938,13.2969 32.5,4.79688 32.5,-4 C32.5,-9.90625 27.5,-13.2031 21.2969,-13.2031 C11.5938,-13.2031 0,-5 0,4.20313"/>
<path class="Note" transform="matrix(0.992,0,0,0.992,2247.1,161.2)" d="M0,4.20313 C0,8.5 3.09375,13.2969 11.2031,13.2969 C21.5938,13.2969 32.5,4.79688 32.5,-4 C32.5,-9.90625 27.5,-13.2031 21.2969,-13.2031 C11.5938,-13.2031 0,-5 0,4.20313"/>
<path class="Note" transform="matrix(0.992,0,0,0.992,1462.45,198.4)" d="M0,4.20313 C0,8.5 3.09375,13.2969 11.2031,13.2969 C21.5938,13.2969 32.5,4.79688 32.5,-4 C32.5,-9.90625 27.5,-13.2031 21.2969,-13.2031 C11.5938,-13.2031 0,-5 0,4.20313"/>
<path class="Note" transform="matrix(0.992,0,0,0.992,1355.42,186)" d="M0,4.20313 C0,8.5 3.09375,13.2969 11.2031,13.2969 C21.5938,13.2969 32.5,4.79688 32.5,-4 C32.5,-9.90625 27.5,-13.2031 21.2969,-13.2031 C11.5938,-13.2031 0,-5 0,4.20313"/>
<path class="Note" transform="matrix(0.992,0,0,0.992,2657.15,148.8)" d="M0,4.20313 C0,8.5 3.09375,13.2969 11.2031,13.2969 C21.5938,13.2969 32.5,4.79688 32.5,-4 C32.5,-9.90625 27.5,-13.2031 21.2969,-13.2031 C11.5938,-13.2031 0,-5 0,4.20313"/>
<path class="Note" transform="matrix(0.992,0,0,0.992,2033.04,161.2)" d="M0,4.20313 C0,8.5 3.09375,13.2969 11.2031,13.2969 C21.5938,13.2969 32.5,4.79688 32.5,-4 C32.5,-9.90625 27.5,-13.2031 21.2969,-13.2031 C11.5938,-13.2031 0,-5 0,4.20313"/>
<path class="Note" transform="matrix(0.992,0,0,0.992,1034.34,173.6)" d="M0,4.20313 C0,8.5 3.09375,13.2969 11.2031,13.2969 C21.5938,13.2969 32.5,4.79688 32.5,-4 C32.5,-9.90625 27.5,-13.2031 21.2969,-13.2031 C11.5938,-13.2031 0,-5 0,4.20313"/>
<path class="Note" transform="matrix(0.992,0,0,0.992,2817.69,148.8)" d="M0,4.20313 C0,8.5 3.09375,13.2969 11.2031,13.2969 C21.5938,13.2969 32.5,4.79688 32.5,-4 C32.5,-9.90625 27.5,-13.2031 21.2969,-13.2031 C11.5938,-13.2031 0,-5 0,4.20313"/>
<path class="Note" transform="matrix(0.992,0,0,0.992,891.85,186)" d="M0,4.20313 C0,8.5 3.09375,13.2969 11.2031,13.2969 C21.5938,13.2969 32.5,4.79688 32.5,-4 C32.5,-9.90625 27.5,-13.2031 21.2969,-13.2031 C11.5938,-13.2031 0,-5 0,4.20313"/>
<path class="Note" transform="matrix(0.992,0,0,0.992,784.823,173.6)" d="M0,4.20313 C0,8.5 3.09375,13.2969 11.2031,13.2969 C21.5938,13.2969 32.5,4.79688 32.5,-4 C32.5,-9.90625 27.5,-13.2031 21.2969,-13.2031 C11.5938,-13.2031 0,-5 0,4.20313"/>
<path class="Clef" transform="matrix(0.992,0,0,0.992,142.6,248)" d="M42,20.5938 C40,21 38.1094,21.2031 36.2031,21.2031 C21.9063,21.2031 9.70313,11.2031 9.70313,-3.90625 C9.70313,-16.0938 18.2969,-27 27.1094,-34.6094 C28.7969,-36.1094 30.4063,-37.5 31.9063,-39 C32.7969,-33.6094 33.5,-28.9063 34.2031,-24.7969 C25.0938,-22.0938 18.9063,-12.5 18.9063,-3.09375 C18.9063,3.90625 24.4063,13.5 32.4063,13.5 C33.2031,13.5 34.1094,13.0938 34.1094,12.2031 C34.1094,11.2969 33.1094,10.7969 31.9063,10 C28,7.59375 25.7969,5 25.7969,0.09375 C25.7969,-6 30.2969,-10.9063 36.2031,-12.2969 L42,20.5938 M33.2031,-82.2031 C34.1094,-86.2031 38.7031,-96.7031 43.9063,-96.7031 C45.4063,-96.7031 47.7969,-91.8125 47.7969,-84.9063 C47.7969,-74.5 40.1094,-66.7031 33.2031,-59.9063 C32.6094,-63.9063 32.1094,-67.7969 32.1094,-72 C32.1094,-75.7031 32.4063,-79.1094 33.2031,-82.2031 M56.2031,2.09375 C56.2031,9.20313 53.2969,16.5 46.2031,19.4063 C44.1094,7.40625 41.4063,-8.5 40.7031,-12.9063 C49.7031,-12.9063 56.2031,-6.79688 56.2031,2.09375 M12.2031,51.2969 C12.2031,57.9063 17.2969,66.6094 30.7969,66.6094 C35.5,66.6094 39.6094,65.4063 43.2031,63.2031 C48.6094,59.4063 50,52.7969 50,46.5 C50,42.6094 49.4063,38.1094 48.4063,32.4063 C48.1094,30.4063 47.5,27.4063 46.9063,23.5 C56.7031,20.2969 64,10.0938 64,-0.203125 C64,-15.2969 53.2969,-25.5 38.7031,-25.5 C37.7031,-31.5 36.7031,-37.4063 35.7969,-43 C46.4063,-54.1094 53.7031,-66.6094 53.7031,-82.5 C53.7031,-91.6094 50.9063,-99 49.2969,-102.609 C46.9063,-107.703 44,-111.203 42.2031,-111.203 C41.5,-111.203 38.4063,-110 35.1094,-106.109 C28.7031,-98.5 26.9063,-85.7031 26.9063,-77.3125 C26.9063,-71.9063 27.4063,-67 29.1094,-55.7969 C29,-55.7031 23.7969,-50.4063 21.7031,-48.7031 C12.5938,-40.2031 0,-28.1094 0,-8.09375 C0,10.5938 16.2969,25.2969 34.9063,25.2969 C37.7969,25.2969 40.5,25 42.7969,24.5938 C44.7031,34.2031 45.7969,41.2031 45.7969,46.5 C45.7969,56.9063 40.5,62.4063 30.4063,62.4063 C28,62.4063 25.9063,61.9063 25.7031,61.9063 C25.6094,61.7969 25.4063,61.7031 25.4063,61.6094 C25.4063,61.4063 25.6094,61.2969 25.9063,61.2031 C30.6094,60.5 35.2969,56.5 35.2969,50.1094 C35.2969,44.7031 31.2031,39 23.7031,39 C16.7031,39 12.2031,44.7031 12.2031,51.2969"/>
<path class="KeySig" transform="matrix(0.992,0,0,0.992,224.672,223.2)" d="M13.2031,-4 C13.2031,3.90625 9.09375,8.09375 3.29688,12.7031 L3.59375,-6.79688 C3.79688,-7.70313 5.29688,-10.5938 9.29688,-10.5938 C12.9063,-10.5938 13.2031,-7.20313 13.2031,-5.09375 L13.2031,-4 M12,-15.5 C7,-15.5 4.09375,-12.4063 3.59375,-11.7969 L4,-43.9063 C4,-44.7031 3.40625,-45.2969 2.59375,-45.2969 L1.40625,-45.2969 C0.59375,-45.2969 0,-44.7031 0,-43.9063 L0.5,16.2031 C0.5,17 1.09375,17.5938 1.90625,17.5938 C2.09375,17.5938 2.5,17.5 2.70313,17.4063 C11.2969,13.0938 20.2969,4.90625 20.2969,-5.40625 C20.2969,-10.5938 17.9063,-15.5 12,-15.5"/>
<path class="TimeSig" transform="matrix(0.992,0,0,0.992,268.429,198.896)" d="M21,20.2031 C17.7031,20.2031 15,15.7031 15,10.0938 C15,4.5 17.7031,-0.09375 21,-0.09375 C24.2969,-0.09375 27.1094,4.5 27.1094,10.0938 C27.1094,15.7031 24.2969,20.2031 21,20.2031 M24.7031,-4.79688 C18.5938,-4.79688 16.4063,-3 15,-1.5 C14.7031,-3.59375 14.5,-5.20313 14.5,-6.79688 C14.5,-12.5 16.5,-19.9063 23.5,-19.9063 C26,-19.9063 27.5,-19.0938 28.5,-18 C26.4063,-17.0938 24.7031,-14.4063 24.7031,-12.0938 C24.7031,-8.5 27.5,-5.70313 31.1094,-5.70313 C34.7031,-5.70313 37.6094,-8.5 37.6094,-12.0938 L37.6094,-12.4063 C37.6094,-13.2969 37.4063,-14.7969 37,-15.5938 C35.7031,-19.2031 31.5,-24.5 21.5,-24.5 C12.5,-24.5 6,-15.9063 4,-11.2969 C3,-8.90625 1.5,-4 1.5,1.59375 C1.5,7.70313 3.20313,14.5938 9.09375,19.7969 C14.9063,24.2031 18.5938,24.4063 22.0938,24.4063 C25.6094,24.4063 38.7031,20.2969 38.7031,8.70313 C38.7031,-1.09375 31,-4.79688 24.7031,-4.79688"/>
<path class="TimeSig" transform="matrix(0.992,0,0,0.992,268.135,247.752)" d="M26.7969,-4.5 C20,-6.70313 12.5,-10 12.5,-14.5 C12.5,-18.4063 16.0938,-20 20.4063,-20 C26.6094,-20 30.7969,-17.0938 30.7969,-12.5 C30.7969,-7.70313 28.6094,-5.40625 26.7969,-4.5 M20.4063,19.2031 C14,19.2031 8.5,15.7031 8.5,10.0938 C8.5,3.40625 13.7031,1.79688 13.7031,1.79688 C20.5,4.09375 30.2031,7.5 30.2031,13 C30.2031,15.7031 26.7031,19.2031 20.4063,19.2031 M32.4063,-1.79688 C35.7031,-4.29688 38,-7.5 38,-11.5 C38,-18.7031 30.1094,-24.5938 20.4063,-24.5938 C10.7031,-24.5938 2.79688,-18.7031 2.79688,-11.5 C2.79688,-7.5 3.79688,-3.90625 8.5,-0.90625 C4,1.70313 1.5,5.40625 1.5,10.2031 C1.5,18.2969 10,24.7969 20.4063,24.7969 C30.7969,24.7969 39.2969,18.2969 39.2969,10.2031 C39.2969,5.40625 37.6094,0.90625 32.4063,-1.79688"/>
<path class="Beam" fill-rule="evenodd" d="M1711.96,266.597 L1928.5,260.397 L1928.5,272.803 L1711.96,279.003 L1711.96,266.597 "/>
<path class="Beam" fill-rule="evenodd" d="M1355.42,260.39 L1571.95,272.79 L1571.95,285.21 L1355.42,272.81 L1355.42,260.39 "/>
<path class="Beam" fill-rule="evenodd" d="M2033.04,241.8 L2249.58,241.8 L2249.58,254.2 L2033.04,254.2 L2033.04,241.8 "/>
<path class="Beam" fill-rule="evenodd" d="M677.797,235.59 L894.33,247.99 L894.33,260.41 L677.797,248.01 L677.797,235.59 "/>
<path class="Beam" fill-rule="evenodd" d="M356.717,266.597 L573.25,260.397 L573.25,272.803 L356.717,279.003 L356.717,266.597 "/>
<path class="Beam" fill-rule="evenodd" d="M1034.34,260.397 L1250.87,266.597 L1250.87,279.003 L1034.34,272.803 L1034.34,260.397 "/>
<path class="Tempo" d="M293.478,68.0625 L290.213,68.0625 L290.213,110.438 C289.119,109.75 287.635,109.344 286.056,109.156 L284.76,109.156 C277.838,109.156 268.135,114.891 268.135,122.609 C268.135,127.359 272.385,129.641 276.744,129.641 C283.572,129.641 293.478,123.5 293.478,116.172 L293.478,68.0625 "/>
<path class="Tempo" d="M313.197,106.125 L343.431,106.125 L343.431,99.2188 L313.197,99.2188 L313.197,106.125 M313.197,118.484 L343.431,118.484 L343.431,111.578 L313.197,111.578 L313.197,118.484 M385.4,81.5156 L383.291,81.5156 C379.51,84.3438 375.26,85.5469 368.119,85.6563 L368.119,89.0156 L370.635,89.0156 C375.978,89.0156 376.041,89.1406 375.978,94.0625 L375.978,115.359 C375.978,119.078 375.978,119.266 375.556,119.859 C375.01,120.516 373.806,120.766 370.572,120.766 L368.65,120.766 L368.65,124 L392.588,124 L392.588,120.766 L390.666,120.766 C387.494,120.766 386.353,120.516 385.806,119.859 C385.4,119.266 385.4,119.016 385.4,115.359 L385.4,81.5156 M418.197,101.922 C423.291,100.594 427.853,98.3281 427.853,92.1406 C427.853,85.7813 422.213,81.5156 413.697,81.5156 C409.306,81.5156 405.775,82.6563 403.26,84.875 C401.275,86.625 400.072,89.1406 400.072,91.4219 C400.072,94.5469 402.416,96.875 405.478,96.875 C408.353,96.875 410.338,94.9688 410.338,92.1406 C410.338,90.5156 409.681,89.2656 407.994,87.6406 C407.697,87.3438 407.572,87.1563 407.572,86.9219 C407.572,85.7813 409.791,84.6406 412.135,84.6406 C415.916,84.6406 418.135,87.4063 418.135,92.0781 C418.135,97.2969 416.4,100.484 413.447,100.484 C412.978,100.484 412.369,100.422 411.416,100.188 C410.088,99.875 409.681,99.8281 409.01,99.8281 C407.51,99.8281 406.791,100.484 406.791,101.797 C406.791,103.188 407.697,104.078 408.947,104.078 C409.369,104.078 409.728,104.016 410.76,103.906 C412.135,103.781 412.494,103.719 412.916,103.719 C416.635,103.719 418.494,106.594 418.494,112.234 C418.494,118.297 415.978,121.719 411.541,121.719 C409.01,121.719 406.369,120.453 406.369,119.203 C406.369,118.844 406.556,118.484 406.916,118.125 C408.713,116.438 409.135,115.656 409.135,113.922 C409.135,111.094 406.916,108.938 403.978,108.938 C400.728,108.938 398.572,111.281 398.572,114.641 C398.572,120.703 404.447,124.844 413.088,124.844 C421.01,124.844 428.931,121.547 428.931,112.422 C428.931,108.641 427.26,105.344 424.494,103.719 C422.76,102.766 421.369,102.344 418.197,101.922 M448.353,81.5156 C439.353,81.5156 432.76,90.7031 432.76,103.188 C432.76,115.656 439.353,124.844 448.353,124.844 C457.166,124.844 463.9,115.656 463.9,103.484 C463.9,96.4063 462.275,91.1875 458.728,86.7344 C455.916,83.3281 452.369,81.5156 448.353,81.5156 M448.291,84.6406 C450.088,84.6406 451.541,85.7188 452.197,87.6406 C452.978,89.625 453.447,95.9219 453.447,103.359 C453.447,109.547 452.978,116.016 452.431,118.063 C451.775,120.453 450.338,121.719 448.291,121.719 C446.431,121.719 445.056,120.703 444.338,118.719 C443.556,116.734 443.072,110.375 443.072,103.188 C443.072,96.875 443.556,90.3438 444.088,88.2969 C444.76,85.9063 446.197,84.6406 448.291,84.6406"/>
</svg>
