<?xml version="1.0" encoding="UTF-8" standalone="no"?>
<svg width="215.9mm" height="33.02mm" viewBox="0 0 3060 468"
 xmlns="http://www.w3.org/2000/svg" xmlns:xlink="http://www.w3.org/1999/xlink" version="1.2" baseProfile="full">
<title>0005</title>
<desc>Generated by MuseScore Studio 4.6.3</desc>
<polyline class="StaffLines" fill="none" stroke="#000000" stroke-width="2.73" stroke-linejoin="bevel" points="124,173.6 2952,173.6" />
<polyline class="StaffLines" fill="none" stroke="#000000" stroke-width="2.73" stroke-linejoin="bevel" points="124,198.4 2952,198.4" />
<polyline class="StaffLines" fill="none" stroke="#000000" stroke-width="2.73" stroke-linejoin="bevel" points="124,223.2 2952,223.2" />
<polyline class="StaffLines" fill="none" stroke="#000000" stroke-width="2.73" stroke-linejoin="bevel" points="124,248 2952,248" />
<polyline class="StaffLines" fill="none" stroke="#000000" stroke-width="2.73" stroke-linejoin="bevel" points="124,272.8 2952,272.8" />
<polyline class="BarLine" fill="none" stroke="#000000" stroke-width="4.46" stroke-linejoin="bevel" points="2314,172.236 2314,274.164" />
<polyline class="BarLine" fill="none" stroke="#000000" stroke-width="4.46" stroke-linejoin="bevel" points="1011.11,172.236 1011.11,274.164" />
<polyline class="BarLine" fill="none" stroke="#000000" stroke-width="4.46" stroke-linejoin="bevel" points="1662.56,172.236 1662.56,274.164" />
<polyline class="BarLine" fill="none" stroke="#000000" stroke-width="4.46" stroke-linejoin="bevel" points="2926.95,172.236 2926.95,274.164" />
<polyline class="BarLine" fill="none" stroke="#000000" stroke-width="13.64" stroke-linejoin="bevel" points="2945.18,172.236 2945.18,274.164" />
<path class="TieSegment" stroke="#000000" stroke-width="1.24" stroke-linecap="round" stroke-linejoin="round" fill-rule="evenodd" d="M1293.04,216.496 C1307.45,231.634 1350.67,231.634 1365.08,216.496 C1350.67,238.483 1307.45,238.483 1293.04,216.496"/>
<path class="TieSegment" stroke="#000000" stroke-width="1.24" stroke-linecap="round" stroke-linejoin="round" fill-rule="evenodd" d="M641.595,216.496 C656.002,231.634 699.225,231.634 713.633,216.496 C699.225,238.483 656.002,238.483 641.595,216.496"/>
<polyline class="Stem" fill="none" stroke="#000000" stroke-width="2.48" stroke-linejoin="bevel" points="1726.79,244.032 1726.79,173.633" />
<polyline class="Stem" fill="none" stroke="#000000" stroke-width="2.48" stroke-linejoin="bevel" points="423.894,281.232 423.894,161.068" />
<polyline class="Stem" fill="none" stroke="#000000" stroke-width="2.48" stroke-linejoin="bevel" points="1614.33,256.432 1614.33,161.068" />
<polyline class="Stem" fill="none" stroke="#000000" stroke-width="2.48" stroke-linejoin="bevel" points="500.892,256.432 500.892,152.889" />
<polyline class="Stem" fill="none" stroke="#000000" stroke-width="2.48" stroke-linejoin="bevel" points="1383.33,194.432 1383.33,136.532" />
<polyline class="Stem" fill="none" stroke="#000000" stroke-width="2.48" stroke-linejoin="bevel" points="1537.33,268.832 1537.33,152.889" />
<polyline class="Stem" fill="none" stroke="#000000" stroke-width="2.48" stroke-linejoin="bevel" points="1229.34,231.632 1229.34,144.711" />
<polyline class="Stem" fill="none" stroke="#000000" stroke-width="2.48" stroke-linejoin="bevel" points="885.881,268.832 885.881,152.889" />
<polyline class="Stem" fill="none" stroke="#000000" stroke-width="2.48" stroke-linejoin="bevel" points="1152.34,256.432 1152.34,152.889" />
<polyline class="Stem" fill="none" stroke="#000000" stroke-width="2.48" stroke-linejoin="bevel" points="731.886,194.432 731.886,136.532" />
<polyline class="Stem" fill="none" stroke="#000000" stroke-width="2.48" stroke-linejoin="bevel" points="808.884,256.432 808.884,144.711" />
<polyline class="Stem" fill="none" stroke="#000000" stroke-width="2.48" stroke-linejoin="bevel" points="962.879,256.432 962.879,161.068" />
<polyline class="Stem" fill="none" stroke="#000000" stroke-width="2.48" stroke-linejoin="bevel" points="1306.33,194.432 1306.33,136.532" />
<polyline class="Stem" fill="none" stroke="#000000" stroke-width="2.48" stroke-linejoin="bevel" points="1075.34,281.232 1075.34,161.068" />
<polyline class="Stem" fill="none" stroke="#000000" stroke-width="2.48" stroke-linejoin="bevel" points="1957.78,256.432 1957.78,179.767" />
<polyline class="Stem" fill="none" stroke="#000000" stroke-width="2.48" stroke-linejoin="bevel" points="2034.78,244.032 2034.78,161.101" />
<polyline class="Stem" fill="none" stroke="#000000" stroke-width="2.48" stroke-linejoin="bevel" points="1880.78,268.832 1880.78,177.722" />
<polyline class="Stem" fill="none" stroke="#000000" stroke-width="2.48" stroke-linejoin="bevel" points="2188.78,219.232 2188.78,148.833" />
<polyline class="Stem" fill="none" stroke="#000000" stroke-width="2.48" stroke-linejoin="bevel" points="2579.47,214.966 2579.47,303.8" />
<polyline class="Stem" fill="none" stroke="#000000" stroke-width="2.48" stroke-linejoin="bevel" points="2265.77,206.832 2265.77,142.699" />
<polyline class="Stem" fill="none" stroke="#000000" stroke-width="2.48" stroke-linejoin="bevel" points="654.888,194.432 654.888,136.532" />
<polyline class="Stem" fill="none" stroke="#000000" stroke-width="2.48" stroke-linejoin="bevel" points="1460.33,256.432 1460.33,144.711" />
<polyline class="Stem" fill="none" stroke="#000000" stroke-width="2.48" stroke-linejoin="bevel" points="2348.48,202.566 2348.48,303.8" />
<polyline class="Stem" fill="none" stroke="#000000" stroke-width="2.48" stroke-linejoin="bevel" points="2111.78,231.632 2111.78,154.967" />
<polyline class="Stem" fill="none" stroke="#000000" stroke-width="2.48" stroke-linejoin="bevel" points="2502.47,190.166 2502.47,303.8" />
<polyline class="Stem" fill="none" stroke="#000000" stroke-width="2.48" stroke-linejoin="bevel" points="2686.23,194.432 2686.23,136.593" />
<polyline class="Stem" fill="none" stroke="#000000" stroke-width="2.48" stroke-linejoin="bevel" points="2763.23,281.232 2763.23,148.607" />
<polyline class="Stem" fill="none" stroke="#000000" stroke-width="2.48" stroke-linejoin="bevel" points="2840.22,281.232 2840.22,198.4" />
<polyline class="Stem" fill="none" stroke="#000000" stroke-width="2.48" stroke-linejoin="bevel" points="577.89,231.632 577.89,144.711" />
<polyline class="Stem" fill="none" stroke="#000000" stroke-width="2.48" stroke-linejoin="bevel" points="1803.79,256.432 1803.79,175.678" />
<polyline class="Stem" fill="none" stroke="#000000" stroke-width="2.48" stroke-linejoin="bevel" points="2425.47,239.766 2425.47,303.8" />
<path class="Note" transform="matrix(0.992,0,0,0.992,1772.79,260.4)" d="M0,4.20313 C0,8.5 3.09375,13.2969 11.2031,13.2969 C21.5938,13.2969 32.5,4.79688 32.5,-4 C32.5,-9.90625 27.5,-13.2031 21.2969,-13.2031 C11.5938,-13.2031 0,-5 0,4.20313"/>
<path class="Note" transform="matrix(0.992,0,0,0.992,1849.78,272.8)" d="M0,4.20313 C0,8.5 3.09375,13.2969 11.2031,13.2969 C21.5938,13.2969 32.5,4.79688 32.5,-4 C32.5,-9.90625 27.5,-13.2031 21.2969,-13.2031 C11.5938,-13.2031 0,-5 0,4.20313"/>
<path class="Note" transform="matrix(0.992,0,0,0.992,392.894,285.2)" d="M0,4.20313 C0,8.5 3.09375,13.2969 11.2031,13.2969 C21.5938,13.2969 32.5,4.79688 32.5,-4 C32.5,-9.90625 27.5,-13.2031 21.2969,-13.2031 C11.5938,-13.2031 0,-5 0,4.20313"/>
<path class="Note" transform="matrix(0.992,0,0,0.992,1926.78,260.4)" d="M0,4.20313 C0,8.5 3.09375,13.2969 11.2031,13.2969 C21.5938,13.2969 32.5,4.79688 32.5,-4 C32.5,-9.90625 27.5,-13.2031 21.2969,-13.2031 C11.5938,-13.2031 0,-5 0,4.20313"/>
<path class="Note" transform="matrix(0.992,0,0,0.992,546.89,235.6)" d="M0,4.20313 C0,8.5 3.09375,13.2969 11.2031,13.2969 C21.5938,13.2969 32.5,4.79688 32.5,-4 C32.5,-9.90625 27.5,-13.2031 21.2969,-13.2031 C11.5938,-13.2031 0,-5 0,4.20313"/>
<path class="Note" transform="matrix(0.992,0,0,0.992,2003.78,248)" d="M0,4.20313 C0,8.5 3.09375,13.2969 11.2031,13.2969 C21.5938,13.2969 32.5,4.79688 32.5,-4 C32.5,-9.90625 27.5,-13.2031 21.2969,-13.2031 C11.5938,-13.2031 0,-5 0,4.20313"/>
<path class="Note" transform="matrix(0.992,0,0,0.992,623.888,198.4)" d="M0,4.20313 C0,8.5 3.09375,13.2969 11.2031,13.2969 C21.5938,13.2969 32.5,4.79688 32.5,-4 C32.5,-9.90625 27.5,-13.2031 21.2969,-13.2031 C11.5938,-13.2031 0,-5 0,4.20313"/>
<path class="Note" transform="matrix(0.992,0,0,0.992,2080.78,235.6)" d="M0,4.20313 C0,8.5 3.09375,13.2969 11.2031,13.2969 C21.5938,13.2969 32.5,4.79688 32.5,-4 C32.5,-9.90625 27.5,-13.2031 21.2969,-13.2031 C11.5938,-13.2031 0,-5 0,4.20313"/>
<path class="Note" transform="matrix(0.992,0,0,0.992,700.886,198.4)" d="M0,4.20313 C0,8.5 3.09375,13.2969 11.2031,13.2969 C21.5938,13.2969 32.5,4.79688 32.5,-4 C32.5,-9.90625 27.5,-13.2031 21.2969,-13.2031 C11.5938,-13.2031 0,-5 0,4.20313"/>
<path class="Note" transform="matrix(0.992,0,0,0.992,777.884,260.4)" d="M0,4.20313 C0,8.5 3.09375,13.2969 11.2031,13.2969 C21.5938,13.2969 32.5,4.79688 32.5,-4 C32.5,-9.90625 27.5,-13.2031 21.2969,-13.2031 C11.5938,-13.2031 0,-5 0,4.20313"/>
<path class="Note" transform="matrix(0.992,0,0,0.992,854.881,272.8)" d="M0,4.20313 C0,8.5 3.09375,13.2969 11.2031,13.2969 C21.5938,13.2969 32.5,4.79688 32.5,-4 C32.5,-9.90625 27.5,-13.2031 21.2969,-13.2031 C11.5938,-13.2031 0,-5 0,4.20313"/>
<path class="Note" transform="matrix(0.992,0,0,0.992,2234.77,210.8)" d="M0,4.20313 C0,8.5 3.09375,13.2969 11.2031,13.2969 C21.5938,13.2969 32.5,4.79688 32.5,-4 C32.5,-9.90625 27.5,-13.2031 21.2969,-13.2031 C11.5938,-13.2031 0,-5 0,4.20313"/>
<path class="Note" transform="matrix(0.992,0,0,0.992,931.879,260.4)" d="M0,4.20313 C0,8.5 3.09375,13.2969 11.2031,13.2969 C21.5938,13.2969 32.5,4.79688 32.5,-4 C32.5,-9.90625 27.5,-13.2031 21.2969,-13.2031 C11.5938,-13.2031 0,-5 0,4.20313"/>
<path class="Note" transform="matrix(0.992,0,0,0.992,1044.34,285.2)" d="M0,4.20313 C0,8.5 3.09375,13.2969 11.2031,13.2969 C21.5938,13.2969 32.5,4.79688 32.5,-4 C32.5,-9.90625 27.5,-13.2031 21.2969,-13.2031 C11.5938,-13.2031 0,-5 0,4.20313"/>
<path class="Note" transform="matrix(0.992,0,0,0.992,1121.34,260.4)" d="M0,4.20313 C0,8.5 3.09375,13.2969 11.2031,13.2969 C21.5938,13.2969 32.5,4.79688 32.5,-4 C32.5,-9.90625 27.5,-13.2031 21.2969,-13.2031 C11.5938,-13.2031 0,-5 0,4.20313"/>
<path class="Note" transform="matrix(0.992,0,0,0.992,2347.24,198.4)" d="M0,4.20313 C0,8.5 3.09375,13.2969 11.2031,13.2969 C21.5938,13.2969 32.5,4.79688 32.5,-4 C32.5,-9.90625 27.5,-13.2031 21.2969,-13.2031 C11.5938,-13.2031 0,-5 0,4.20313"/>
<path class="Note" transform="matrix(0.992,0,0,0.992,1198.34,235.6)" d="M0,4.20313 C0,8.5 3.09375,13.2969 11.2031,13.2969 C21.5938,13.2969 32.5,4.79688 32.5,-4 C32.5,-9.90625 27.5,-13.2031 21.2969,-13.2031 C11.5938,-13.2031 0,-5 0,4.20313"/>
<path class="Note" transform="matrix(0.992,0,0,0.992,2424.23,235.6)" d="M0,4.20313 C0,8.5 3.09375,13.2969 11.2031,13.2969 C21.5938,13.2969 32.5,4.79688 32.5,-4 C32.5,-9.90625 27.5,-13.2031 21.2969,-13.2031 C11.5938,-13.2031 0,-5 0,4.20313"/>
<path class="Note" transform="matrix(0.992,0,0,0.992,1275.33,198.4)" d="M0,4.20313 C0,8.5 3.09375,13.2969 11.2031,13.2969 C21.5938,13.2969 32.5,4.79688 32.5,-4 C32.5,-9.90625 27.5,-13.2031 21.2969,-13.2031 C11.5938,-13.2031 0,-5 0,4.20313"/>
<path class="Note" transform="matrix(0.992,0,0,0.992,2501.23,186)" d="M0,4.20313 C0,8.5 3.09375,13.2969 11.2031,13.2969 C21.5938,13.2969 32.5,4.79688 32.5,-4 C32.5,-9.90625 27.5,-13.2031 21.2969,-13.2031 C11.5938,-13.2031 0,-5 0,4.20313"/>
<path class="Note" transform="matrix(0.992,0,0,0.992,2157.78,223.2)" d="M0,4.20313 C0,8.5 3.09375,13.2969 11.2031,13.2969 C21.5938,13.2969 32.5,4.79688 32.5,-4 C32.5,-9.90625 27.5,-13.2031 21.2969,-13.2031 C11.5938,-13.2031 0,-5 0,4.20313"/>
<path class="Note" transform="matrix(0.992,0,0,0.992,2578.23,210.8)" d="M0,4.20313 C0,8.5 3.09375,13.2969 11.2031,13.2969 C21.5938,13.2969 32.5,4.79688 32.5,-4 C32.5,-9.90625 27.5,-13.2031 21.2969,-13.2031 C11.5938,-13.2031 0,-5 0,4.20313"/>
<path class="Note" transform="matrix(0.992,0,0,0.992,469.892,260.4)" d="M0,4.20313 C0,8.5 3.09375,13.2969 11.2031,13.2969 C21.5938,13.2969 32.5,4.79688 32.5,-4 C32.5,-9.90625 27.5,-13.2031 21.2969,-13.2031 C11.5938,-13.2031 0,-5 0,4.20313"/>
<path class="Note" transform="matrix(0.992,0,0,0.992,2655.23,198.4)" d="M0,4.20313 C0,8.5 3.09375,13.2969 11.2031,13.2969 C21.5938,13.2969 32.5,4.79688 32.5,-4 C32.5,-9.90625 27.5,-13.2031 21.2969,-13.2031 C11.5938,-13.2031 0,-5 0,4.20313"/>
<path class="Note" transform="matrix(0.992,0,0,0.992,1352.33,198.4)" d="M0,4.20313 C0,8.5 3.09375,13.2969 11.2031,13.2969 C21.5938,13.2969 32.5,4.79688 32.5,-4 C32.5,-9.90625 27.5,-13.2031 21.2969,-13.2031 C11.5938,-13.2031 0,-5 0,4.20313"/>
<path class="Note" transform="matrix(0.992,0,0,0.992,2732.23,285.2)" d="M0,4.20313 C0,8.5 3.09375,13.2969 11.2031,13.2969 C21.5938,13.2969 32.5,4.79688 32.5,-4 C32.5,-9.90625 27.5,-13.2031 21.2969,-13.2031 C11.5938,-13.2031 0,-5 0,4.20313"/>
<path class="Note" transform="matrix(0.992,0,0,0.992,1429.33,260.4)" d="M0,4.20313 C0,8.5 3.09375,13.2969 11.2031,13.2969 C21.5938,13.2969 32.5,4.79688 32.5,-4 C32.5,-9.90625 27.5,-13.2031 21.2969,-13.2031 C11.5938,-13.2031 0,-5 0,4.20313"/>
<path class="Note" transform="matrix(0.992,0,0,0.992,2809.22,285.2)" d="M0,4.20313 C0,8.5 3.09375,13.2969 11.2031,13.2969 C21.5938,13.2969 32.5,4.79688 32.5,-4 C32.5,-9.90625 27.5,-13.2031 21.2969,-13.2031 C11.5938,-13.2031 0,-5 0,4.20313"/>
<path class="Note" transform="matrix(0.992,0,0,0.992,1506.33,272.8)" d="M0,4.20313 C0,8.5 3.09375,13.2969 11.2031,13.2969 C21.5938,13.2969 32.5,4.79688 32.5,-4 C32.5,-9.90625 27.5,-13.2031 21.2969,-13.2031 C11.5938,-13.2031 0,-5 0,4.20313"/>
<path class="Note" transform="matrix(0.992,0,0,0.992,1583.33,260.4)" d="M0,4.20313 C0,8.5 3.09375,13.2969 11.2031,13.2969 C21.5938,13.2969 32.5,4.79688 32.5,-4 C32.5,-9.90625 27.5,-13.2031 21.2969,-13.2031 C11.5938,-13.2031 0,-5 0,4.20313"/>
<path class="Note" transform="matrix(0.992,0,0,0.992,1695.79,248)" d="M0,4.20313 C0,8.5 3.09375,13.2969 11.2031,13.2969 C21.5938,13.2969 32.5,4.79688 32.5,-4 C32.5,-9.90625 27.5,-13.2031 21.2969,-13.2031 C11.5938,-13.2031 0,-5 0,4.20313"/>
<path class="Clef" transform="matrix(0.992,0,0,0.992,142.6,248)" d="M42,20.5938 C40,21 38.1094,21.2031 36.2031,21.2031 C21.9063,21.2031 9.70313,11.2031 9.70313,-3.90625 C9.70313,-16.0938 18.2969,-27 27.1094,-34.6094 C28.7969,-36.1094 30.4063,-37.5 31.9063,-39 C32.7969,-33.6094 33.5,-28.9063 34.2031,-24.7969 C25.0938,-22.0938 18.9063,-12.5 18.9063,-3.09375 C18.9063,3.90625 24.4063,13.5 32.4063,13.5 C33.2031,13.5 34.1094,13.0938 34.1094,12.2031 C34.1094,11.2969 33.1094,10.7969 31.9063,10 C28,7.59375 25.7969,5 25.7969,0.09375 C25.7969,-6 30.2969,-10.9063 36.2031,-12.2969 L42,20.5938 M33.2031,-82.2031 C34.1094,-86.2031 38.7031,-96.7031 43.9063,-96.7031 C45.4063,-96.7031 47.7969,-91.8125 47.7969,-84.9063 C47.7969,-74.5 40.1094,-66.7031 33.2031,-59.9063 C32.6094,-63.9063 32.1094,-67.7969 32.1094,-72 C32.1094,-75.7031 32.4063,-79.1094 33.2031,-82.2031 M56.2031,2.09375 C56.2031,9.20313 53.2969,16.5 46.2031,19.4063 C44.1094,7.40625 41.4063,-8.5 40.7031,-12.9063 C49.7031,-12.9063 56.2031,-6.79688 56.2031,2.09375 M12.2031,51.2969 C12.2031,57.9063 17.2969,66.6094 30.7969,66.6094 C35.5,66.6094 39.6094,65.4063 43.2031,63.2031 C48.6094,59.4063 50,52.7969 50,46.5 C50,42.6094 49.4063,38.1094 48.4063,32.4063 C48.1094,30.4063 47.5,27.4063 46.9063,23.5 C56.7031,20.2969 64,10.0938 64,-0.203125 C64,-15.2969 53.2969,-25.5 38.7031,-25.5 C37.7031,-31.5 36.7031,-37.4063 35.7969,-43 C46.4063,-54.1094 53.7031,-66.6094 53.7031,-82.5 C53.7031,-91.6094 50.9063,-99 49.2969,-102.609 C46.9063,-107.703 44,-111.203 42.2031,-111.203 C41.5,-111.203 38.4063,-110 35.1094,-106.109 C28.7031,-98.5 26.9063,-85.7031 26.9063,-77.3125 C26.9063,-71.9063 27.4063,-67 29.1094,-55.7969 C29,-55.7031 23.7969,-50.4063 21.7031,-48.7031 C12.5938,-40.2031 0,-28.1094 0,-8.09375 C0,10.5938 16.2969,25.2969 34.9063,25.2969 C37.7969,25.2969 40.5,25 42.7969,24.5938 C44.7031,34.2031 45.7969,41.2031 45.7969,46.5 C45.7969,56.9063 40.5,62.4063 30.4063,62.4063 C28,62.4063 25.9063,61.9063 25.7031,61.9063 C25.6094,61.7969 25.4063,61.7031 25.4063,61.6094 C25.4063,61.4063 25.6094,61.2969 25.9063,61.2031 C30.6094,60.5 35.2969,56.5 35.2969,50.1094 C35.2969,44.7031 31.2031,39 23.7031,39 C16.7031,39 12.2031,44.7031 12.2031,51.2969"/>
<path class="KeySig" transform="matrix(0.992,0,0,0.992,224.672,173.6)" d="M7.79688,-7.40625 L16.7031,-9.20313 L16.7031,7.29688 L7.79688,9.20313 L7.79688,-7.40625 M23.2969,-10.5 C23.9063,-10.5938 24.4063,-11.2969 24.4063,-11.9063 L24.4063,-17.7969 C24.4063,-18.5938 23.7969,-19.2031 23,-19.2031 L22.7969,-19.2031 L19.5,-18.5 L19.5,-33.4063 L16.7031,-33.4063 L16.7031,-17.9063 L7.79688,-16.0938 L7.79688,-30.2031 L5,-30.2031 L5,-15.5 L1.09375,-14.7031 C0.5,-14.5938 0,-13.9063 0,-13.2969 L0,-7.5 C0,-6.70313 0.59375,-6.09375 1.40625,-6.09375 L1.70313,-6.09375 L5,-6.79688 L5,9.70313 L1.09375,10.5 C0.5,10.5938 0,11.2969 0,11.9063 L0,17.7031 C0,18.5 0.59375,19.0938 1.40625,19.0938 L1.70313,19.0938 L5,18.4063 L5,33.2969 L7.79688,33.2969 L7.79688,17.7969 L16.7031,16 L16.7031,30.1094 L19.5,30.1094 L19.5,15.4063 L23.2969,14.7031 C23.9063,14.5938 24.4063,13.9063 24.4063,13.2969 L24.4063,7.40625 C24.4063,6.59375 23.7969,6 23,6 L22.7969,6 L19.5,6.70313 L19.5,-9.79688 L23.2969,-10.5 "/>
<path class="KeySig" transform="matrix(0.992,0,0,0.992,251.844,210.8)" d="M7.79688,-7.40625 L16.7031,-9.20313 L16.7031,7.29688 L7.79688,9.20313 L7.79688,-7.40625 M23.2969,-10.5 C23.9063,-10.5938 24.4063,-11.2969 24.4063,-11.9063 L24.4063,-17.7969 C24.4063,-18.5938 23.7969,-19.2031 23,-19.2031 L22.7969,-19.2031 L19.5,-18.5 L19.5,-33.4063 L16.7031,-33.4063 L16.7031,-17.9063 L7.79688,-16.0938 L7.79688,-30.2031 L5,-30.2031 L5,-15.5 L1.09375,-14.7031 C0.5,-14.5938 0,-13.9063 0,-13.2969 L0,-7.5 C0,-6.70313 0.59375,-6.09375 1.40625,-6.09375 L1.70313,-6.09375 L5,-6.79688 L5,9.70313 L1.09375,10.5 C0.5,10.5938 0,11.2969 0,11.9063 L0,17.7031 C0,18.5 0.59375,19.0938 1.40625,19.0938 L1.70313,19.0938 L5,18.4063 L5,33.2969 L7.79688,33.2969 L7.79688,17.7969 L16.7031,16 L16.7031,30.1094 L19.5,30.1094 L19.5,15.4063 L23.2969,14.7031 C23.9063,14.5938 24.4063,13.9063 24.4063,13.2969 L24.4063,7.40625 C24.4063,6.59375 23.7969,6 23,6 L22.7969,6 L19.5,6.70313 L19.5,-9.79688 L23.2969,-10.5 "/>
<path class="TimeSig" transform="matrix(0.992,0,0,0.992,299.46,198.4)" d="M20.7969,12.7031 L20.7969,20.0938 L12.5,20.0938 C11.7969,20.0938 11.0938,20.7031 11.0938,21.5 L11.0938,23.4063 C11.0938,24.2031 11.7969,24.7969 12.5,24.7969 L42.7969,24.7969 C43.6094,24.7969 44.2031,24.2031 44.2031,23.4063 L44.2031,21.5 C44.2031,20.7031 43.6094,20.0938 42.7969,20.0938 L33.7969,20.0938 L33.7969,12.7031 L42.7969,12.7031 C43.6094,12.7031 44.2031,12 44.2031,11.2031 L44.2031,9.29688 C44.2031,8.59375 43.6094,7.90625 42.7969,7.90625 L33.7969,7.90625 L33.7969,-8 C33.7969,-8.59375 33.5,-9.09375 33.1094,-9.29688 L31.9063,-9.90625 C31.7031,-10 31.6094,-10 31.4063,-10 C31,-10 30.6094,-10 30.2969,-9.70313 L21.2031,-1.40625 C20.9063,-1.09375 20.7969,-0.703125 20.7969,-0.296875 L20.7969,7.90625 L9.20313,7.90625 C9.20313,7.90625 20.4063,-4.09375 32.2031,-19.9063 C32.6094,-20.4063 32.7031,-20.9063 32.7031,-21.2969 C32.7031,-21.7969 32.5,-22.2031 32.4063,-22.2969 L30.2031,-24.5 C29.9063,-24.7031 29.6094,-24.9063 29.2031,-24.9063 C28.6094,-24.9063 15.0938,-24.9063 14.2969,-24.9063 C13.5938,-24.9063 13.0938,-24.2969 13,-23.7031 C13,-23.7031 12.5,-16.2969 9.90625,-8.20313 C7.29688,-0.09375 4.29688,4.90625 1.70313,8.59375 C1.70313,8.59375 1.40625,9.09375 1.40625,9.70313 C1.40625,9.90625 1.40625,10.0938 1.5,10.2969 C1.79688,11 2.5,12.0938 2.5,12.0938 C2.5,12.0938 2.70313,12.7031 3.59375,12.7031 L20.7969,12.7031 "/>
<path class="TimeSig" transform="matrix(0.992,0,0,0.992,299.46,248)" d="M20.7969,12.7031 L20.7969,20.0938 L12.5,20.0938 C11.7969,20.0938 11.0938,20.7031 11.0938,21.5 L11.0938,23.4063 C11.0938,24.2031 11.7969,24.7969 12.5,24.7969 L42.7969,24.7969 C43.6094,24.7969 44.2031,24.2031 44.2031,23.4063 L44.2031,21.5 C44.2031,20.7031 43.6094,20.0938 42.7969,20.0938 L33.7969,20.0938 L33.7969,12.7031 L42.7969,12.7031 C43.6094,12.7031 44.2031,12 44.2031,11.2031 L44.2031,9.29688 C44.2031,8.59375 43.6094,7.90625 42.7969,7.90625 L33.7969,7.90625 L33.7969,-8 C33.7969,-8.59375 33.5,-9.09375 33.1094,-9.29688 L31.9063,-9.90625 C31.7031,-10 31.6094,-10 31.4063,-10 C31,-10 30.6094,-10 30.2969,-9.70313 L21.2031,-1.40625 C20.9063,-1.09375 20.7969,-0.703125 20.7969,-0.296875 L20.7969,7.90625 L9.20313,7.90625 C9.20313,7.90625 20.4063,-4.09375 32.2031,-19.9063 C32.6094,-20.4063 32.7031,-20.9063 32.7031,-21.2969 C32.7031,-21.7969 32.5,-22.2031 32.4063,-22.2969 L30.2031,-24.5 C29.9063,-24.7031 29.6094,-24.9063 29.2031,-24.9063 C28.6094,-24.9063 15.0938,-24.9063 14.2969,-24.9063 C13.5938,-24.9063 13.0938,-24.2969 13,-23.7031 C13,-23.7031 12.5,-16.2969 9.90625,-8.20313 C7.29688,-0.09375 4.29688,4.90625 1.70313,8.59375 C1.70313,8.59375 1.40625,9.09375 1.40625,9.70313 C1.40625,9.90625 1.40625,10.0938 1.5,10.2969 C1.79688,11 2.5,12.0938 2.5,12.0938 C2.5,12.0938 2.70313,12.7031 3.59375,12.7031 L20.7969,12.7031 "/>
<path class="Beam" fill-rule="evenodd" d="M1074.1,154.965 L1307.57,130.165 L1307.57,142.635 L1074.1,167.435 L1074.1,154.965 "/>
<path class="Beam" fill-rule="evenodd" d="M1382.09,130.165 L1615.57,154.965 L1615.57,167.435 L1382.09,142.635 L1382.09,130.165 "/>
<path class="Beam" fill-rule="evenodd" d="M2684.99,130.125 L2764.47,142.525 L2764.47,155.075 L2684.99,142.675 L2684.99,130.125 "/>
<path class="Beam" fill-rule="evenodd" d="M422.654,154.965 L656.128,130.165 L656.128,142.635 L422.654,167.435 L422.654,154.965 "/>
<path class="Beam" fill-rule="evenodd" d="M2347.24,297.6 L2580.71,297.6 L2580.71,310 L2347.24,310 L2347.24,297.6 "/>
<path class="Beam" fill-rule="evenodd" d="M2033.54,154.98 L2267.01,136.38 L2267.01,148.82 L2033.54,167.42 L2033.54,154.98 "/>
<path class="Beam" fill-rule="evenodd" d="M730.646,130.165 L964.119,154.965 L964.119,167.435 L730.646,142.635 L730.646,130.165 "/>
<path class="Beam" fill-rule="evenodd" d="M1725.55,167.398 L1959.02,173.598 L1959.02,186.002 L1725.55,179.802 L1725.55,167.398 "/>
<path class="Tempo" d="M324.804,68.0625 L321.538,68.0625 L321.538,110.438 C320.444,109.75 318.96,109.344 317.382,109.156 L316.085,109.156 C309.163,109.156 299.46,114.891 299.46,122.609 C299.46,127.359 303.71,129.641 308.069,129.641 C314.897,129.641 324.804,123.5 324.804,116.172 L324.804,68.0625 "/>
<path class="Tempo" d="M344.522,106.125 L374.757,106.125 L374.757,99.2188 L344.522,99.2188 L344.522,106.125 M344.522,118.484 L374.757,118.484 L374.757,111.578 L344.522,111.578 L344.522,118.484 M416.726,81.5156 L414.616,81.5156 C410.835,84.3438 406.585,85.5469 399.444,85.6563 L399.444,89.0156 L401.96,89.0156 C407.304,89.0156 407.366,89.1406 407.304,94.0625 L407.304,115.359 C407.304,119.078 407.304,119.266 406.882,119.859 C406.335,120.516 405.132,120.766 401.897,120.766 L399.976,120.766 L399.976,124 L423.913,124 L423.913,120.766 L421.991,120.766 C418.819,120.766 417.679,120.516 417.132,119.859 C416.726,119.266 416.726,119.016 416.726,115.359 L416.726,81.5156 M449.522,101.922 C454.616,100.594 459.179,98.3281 459.179,92.1406 C459.179,85.7813 453.538,81.5156 445.022,81.5156 C440.632,81.5156 437.101,82.6563 434.585,84.875 C432.601,86.625 431.397,89.1406 431.397,91.4219 C431.397,94.5469 433.741,96.875 436.804,96.875 C439.679,96.875 441.663,94.9688 441.663,92.1406 C441.663,90.5156 441.007,89.2656 439.319,87.6406 C439.022,87.3438 438.897,87.1563 438.897,86.9219 C438.897,85.7813 441.116,84.6406 443.46,84.6406 C447.241,84.6406 449.46,87.4063 449.46,92.0781 C449.46,97.2969 447.726,100.484 444.772,100.484 C444.304,100.484 443.694,100.422 442.741,100.188 C441.413,99.875 441.007,99.8281 440.335,99.8281 C438.835,99.8281 438.116,100.484 438.116,101.797 C438.116,103.188 439.022,104.078 440.272,104.078 C440.694,104.078 441.054,104.016 442.085,103.906 C443.46,103.781 443.819,103.719 444.241,103.719 C447.96,103.719 449.819,106.594 449.819,112.234 C449.819,118.297 447.304,121.719 442.866,121.719 C440.335,121.719 437.694,120.453 437.694,119.203 C437.694,118.844 437.882,118.484 438.241,118.125 C440.038,116.438 440.46,115.656 440.46,113.922 C440.46,111.094 438.241,108.938 435.304,108.938 C432.054,108.938 429.897,111.281 429.897,114.641 C429.897,120.703 435.772,124.844 444.413,124.844 C452.335,124.844 460.257,121.547 460.257,112.422 C460.257,108.641 458.585,105.344 455.819,103.719 C454.085,102.766 452.694,102.344 449.522,101.922 M479.679,81.5156 C470.679,81.5156 464.085,90.7031 464.085,103.188 C464.085,115.656 470.679,124.844 479.679,124.844 C488.491,124.844 495.226,115.656 495.226,103.484 C495.226,96.4063 493.601,91.1875 490.054,86.7344 C487.241,83.3281 483.694,81.5156 479.679,81.5156 M479.616,84.6406 C481.413,84.6406 482.866,85.7188 483.522,87.6406 C484.304,89.625 484.772,95.9219 484.772,103.359 C484.772,109.547 484.304,116.016 483.757,118.063 C483.101,120.453 481.663,121.719 479.616,121.719 C477.757,121.719 476.382,120.703 475.663,118.719 C474.882,116.734 474.397,110.375 474.397,103.188 C474.397,96.875 474.882,90.3438 475.413,88.2969 C476.085,85.9063 477.522,84.6406 479.616,84.6406"/>
<path class="SystemText" d="M107.203,69.5404 L104.5,69.5404 L101.375,72.2904 C97.9062,70.0091 94.7812,69.056 90.6406,69.056 C81.3437,69.056 75.0468,74.4623 75.0468,82.431 C75.0468,89.7591 80.4375,94.9779 89.8593,96.7123 L93.5781,97.431 C97.4843,98.1498 98.625,98.4623 100.062,99.2279 C101.734,100.134 102.703,101.869 102.703,104.04 C102.703,108.29 99.2812,111.056 94.0625,111.056 C87.2812,111.056 81.3437,105.712 78.0468,96.7123 L74.9843,96.7123 L75.3437,113.697 L78.0468,113.697 L81.7656,110.15 C85.4218,112.915 89.2031,114.181 94.0625,114.181 C103.422,114.181 109.906,108.353 109.906,99.8998 C109.906,92.2748 105.406,88.0091 95.0156,85.7435 L92.1406,85.0716 C87.5156,84.181 87.5156,84.181 86.0156,83.6341 C83.2656,82.681 81.9375,80.931 81.9375,78.4154 C81.9375,74.7591 85.2968,72.181 90.0468,72.181 C96.2812,72.181 101.203,76.4935 104.797,85.0716 L107.984,85.0716 L107.203,69.5404 M149.437,104.04 L143.922,90.6029 C143.687,90.1185 143.562,89.6341 143.562,89.3373 C143.562,88.3216 144.516,87.9623 146.797,87.9623 L147.219,87.9623 L147.219,84.8998 L130.484,84.8998 L130.484,87.9623 C132.703,87.9623 133.359,88.3685 134.141,90.181 L135.641,93.8373 L131.328,104.04 L126.094,90.7748 C125.687,89.6966 125.687,89.6966 125.687,89.3373 C125.687,88.2591 126.219,87.9623 128.625,87.9623 L128.625,84.8998 L112.062,84.8998 L112.062,87.9623 C114.406,88.0716 115.234,88.7435 116.328,91.3216 L126.094,114.119 L130.656,114.119 L137.5,98.2748 L143.922,114.119 L148.422,114.119 L157.844,93.056 C159.578,89.1498 160.781,88.0716 163.484,87.9623 L163.484,84.8998 L149.922,84.8998 L149.922,87.9623 L150.344,87.9623 C152.859,87.9623 154.484,89.0404 154.484,90.7123 C154.484,91.3685 154.187,92.3998 153.641,93.8373 L149.437,104.04 M175.844,69.056 C172.906,69.056 170.5,71.4623 170.5,74.3373 C170.5,77.2748 172.906,79.681 175.719,79.681 C178.781,79.681 181.125,77.3373 181.125,74.3373 C181.125,71.4623 178.719,69.056 175.844,69.056 M180.703,84.8998 L166.609,85.3216 L166.609,88.3685 L167.437,88.3685 C171.109,88.431 171.281,88.681 171.281,94.0091 L171.281,107.869 C171.219,108.712 171.156,109.072 170.922,109.431 C170.562,109.978 169.359,110.212 166.844,110.212 L166.609,110.212 L166.609,113.275 L185.375,113.275 L185.375,110.212 L185.016,110.212 C181.234,110.15 180.703,109.79 180.703,107.634 L180.703,84.8998 M201.859,84.8998 L188.125,85.3216 L188.125,88.3685 L189.016,88.3685 C192.734,88.431 192.922,88.681 192.859,94.1966 L192.859,107.869 C192.797,108.712 192.734,109.072 192.5,109.431 C192.078,109.978 190.937,110.212 188.359,110.212 L188.125,110.212 L188.125,113.275 L206.422,113.275 L206.422,110.212 C203,110.212 202.219,109.728 202.281,107.634 L202.281,98.8216 C202.281,96.1185 202.516,94.556 203.234,93.1185 C204.203,90.9623 206.297,89.5716 208.469,89.5716 C211.281,89.5716 212.844,91.6185 212.844,95.4623 L212.844,107.869 C212.781,108.712 212.719,109.072 212.484,109.431 C211.875,110.04 210.734,110.275 208.703,110.212 L208.703,113.275 L227,113.275 L227,110.212 L226.766,110.212 C222.734,110.15 222.266,109.853 222.266,107.634 L222.266,94.6185 C222.266,90.8998 221.594,88.6185 219.984,86.8685 C218.359,85.0091 215.719,83.9935 212.547,83.9935 C207.797,83.9935 204.797,85.7435 201.859,90.181 L201.859,84.8998 M243.703,107.462 C240.516,107.462 239.797,107.15 239.797,105.712 C239.797,104.212 240.875,103.728 244.359,103.728 L245.437,103.728 C249.406,103.728 251.625,103.369 253.906,102.29 C257.375,100.728 259.422,97.681 259.422,93.9623 C259.422,91.1341 258.453,89.3373 255.828,87.181 C256.594,86.0404 257.328,85.4935 258.047,85.4935 C258.219,85.4935 258.344,85.556 258.344,85.7904 L258.344,86.0404 C258.344,87.4154 259.906,88.7435 261.578,88.7435 C263.687,88.7435 265.297,87.056 265.297,84.8998 C265.297,82.556 263.5,80.9935 260.859,80.9935 C258.094,80.9935 255.828,82.431 253.187,85.7435 C250.906,84.6029 248.203,83.9935 245.141,83.9935 C236.922,83.9935 230.984,88.3216 230.984,94.2591 C230.984,98.3373 233.266,101.212 237.578,102.712 C232.844,103.619 230.625,105.478 230.625,108.587 C230.625,111.228 232.547,113.212 236.078,114.181 C232.062,114.775 229.719,116.697 229.719,119.509 C229.719,123.478 234.516,125.4 244.359,125.4 C255.516,125.4 261.766,121.853 261.766,115.431 C261.766,112.072 259.781,109.259 256.781,108.353 C254.797,107.697 252.156,107.462 247.844,107.462 L243.703,107.462 M245.328,87.1185 C248.203,87.1185 249.703,89.5091 249.703,94.0716 C249.703,98.3998 248.078,100.853 245.266,100.853 C241.359,100.853 240.703,96.8373 240.703,93.7123 C240.703,89.2748 242.266,87.1185 245.328,87.1185 M247.594,115.853 C251.328,115.853 252.047,115.978 253.062,116.634 C253.594,116.994 253.953,117.775 253.953,118.619 C253.953,121.072 250.969,122.275 244.781,122.275 C240.156,122.275 237.516,121.009 237.516,118.79 C237.516,117.478 238.234,116.509 239.734,115.853 L247.594,115.853 "/>
</svg>
